<svg width="302" height="417" viewBox="0 0 302 417" fill="none" xmlns="http://www.w3.org/2000/svg">
<path d="M98.5 230L0 183L98.5 140V230Z" fill="url(#paint0_linear_67_53)"/>
<path d="M0 277L98.5 230L0 183V277Z" fill="url(#paint1_linear_67_53)"/>
<path d="M0 367L98.5 321L0 278V367Z" fill="url(#paint2_linear_67_53)"/>
<path d="M98.5 321L0 278L98.5 231V321Z" fill="url(#paint3_linear_67_53)"/>
<path d="M198 367L99.5 321L198 278V367Z" fill="url(#paint4_linear_67_53)"/>
<path d="M99.5 321L198 278L99.5 231V321Z" fill="url(#paint5_linear_67_53)"/>
<path d="M99.0005 417L99.0005 322L0.000136181 368L99.0005 417Z" fill="url(#paint6_linear_67_53)"/>
<path d="M99.0001 417L99 322L198 368L99.0001 417Z" fill="url(#paint7_linear_67_53)"/>
<path d="M197.5 91.9999L99.5 41L197.5 2V91.9999Z" fill="url(#paint8_linear_67_53)"/>
<path d="M99.5001 139L197.5 92L99.5 41L99.5001 139Z" fill="url(#paint9_linear_67_53)"/>
<path d="M99.5 229L197.5 183L99.5 140V229Z" fill="url(#paint10_linear_67_53)"/>
<path d="M197.5 183L99.5 140L197.5 93V183Z" fill="url(#paint11_linear_67_53)"/>
<path d="M297.5 229L198.5 183L297.5 140V229Z" fill="url(#paint12_linear_67_53)"/>
<path d="M198.5 183L297.5 140L198.5 93V183Z" fill="url(#paint13_linear_67_53)"/>
<path d="M198 277V184L99.5001 230L198 277Z" fill="url(#paint14_linear_67_53)"/>
<path d="M198 277L198 184L297.5 230L198 277Z" fill="url(#paint15_linear_67_53)"/>
<defs>
<linearGradient id="paint0_linear_67_53" x1="4.5" y1="171.226" x2="108.576" y2="132.601" gradientUnits="userSpaceOnUse">
<stop stop-color="#52A37B"/>
<stop offset="1" stop-color="#268B59"/>
</linearGradient>
<linearGradient id="paint1_linear_67_53" x1="73.5" y1="205.726" x2="7.49998" y2="259.726" gradientUnits="userSpaceOnUse">
<stop stop-color="#85B67A"/>
<stop offset="1" stop-color="#85B384"/>
</linearGradient>
<linearGradient id="paint2_linear_67_53" x1="93" y1="309.863" x2="-7.5" y2="305.137" gradientUnits="userSpaceOnUse">
<stop stop-color="#7FD2E0"/>
<stop offset="1" stop-color="#88D2DE"/>
</linearGradient>
<linearGradient id="paint3_linear_67_53" x1="4.5" y1="262.492" x2="105" y2="257.766" gradientUnits="userSpaceOnUse">
<stop stop-color="#C5F0EF"/>
<stop offset="1" stop-color="#BCEBEC"/>
</linearGradient>
<linearGradient id="paint4_linear_67_53" x1="104.5" y1="310.363" x2="205" y2="305.637" gradientUnits="userSpaceOnUse">
<stop stop-color="#5BA9B2"/>
<stop offset="1" stop-color="#50A0AC"/>
</linearGradient>
<linearGradient id="paint5_linear_67_53" x1="195" y1="262.492" x2="94.5" y2="257.766" gradientUnits="userSpaceOnUse">
<stop stop-color="#9AD7D3"/>
<stop offset="1" stop-color="#96D9D5"/>
</linearGradient>
<linearGradient id="paint6_linear_67_53" x1="90.8933" y1="325.458" x2="16.4876" y2="393.181" gradientUnits="userSpaceOnUse">
<stop stop-color="#15AFA1"/>
<stop offset="1" stop-color="#13B2A3"/>
</linearGradient>
<linearGradient id="paint7_linear_67_53" x1="106.664" y1="325.014" x2="181.825" y2="393.362" gradientUnits="userSpaceOnUse">
<stop stop-color="#129085"/>
<stop offset="1" stop-color="#129084"/>
</linearGradient>
<linearGradient id="paint8_linear_67_53" x1="106.5" y1="30.8628" x2="210.576" y2="-7.76131" gradientUnits="userSpaceOnUse">
<stop stop-color="#52A37B"/>
<stop offset="1" stop-color="#268B59"/>
</linearGradient>
<linearGradient id="paint9_linear_67_53" x1="175.5" y1="65.3628" x2="109.5" y2="119.363" gradientUnits="userSpaceOnUse">
<stop stop-color="#85B67A"/>
<stop offset="1" stop-color="#85B384"/>
</linearGradient>
<linearGradient id="paint10_linear_67_53" x1="193" y1="171.863" x2="92.5" y2="167.137" gradientUnits="userSpaceOnUse">
<stop stop-color="#7FD2E0"/>
<stop offset="1" stop-color="#88D2DE"/>
</linearGradient>
<linearGradient id="paint11_linear_67_53" x1="104.5" y1="124.492" x2="205" y2="119.766" gradientUnits="userSpaceOnUse">
<stop stop-color="#C5F0EF"/>
<stop offset="1" stop-color="#BCEBEC"/>
</linearGradient>
<linearGradient id="paint12_linear_67_53" x1="204.5" y1="172.363" x2="305" y2="167.637" gradientUnits="userSpaceOnUse">
<stop stop-color="#5BA9B2"/>
<stop offset="1" stop-color="#50A0AC"/>
</linearGradient>
<linearGradient id="paint13_linear_67_53" x1="295" y1="124.492" x2="194.5" y2="119.766" gradientUnits="userSpaceOnUse">
<stop stop-color="#9AD7D3"/>
<stop offset="1" stop-color="#96D9D5"/>
</linearGradient>
<linearGradient id="paint14_linear_67_53" x1="190.893" y1="187.458" x2="116.487" y2="255.18" gradientUnits="userSpaceOnUse">
<stop stop-color="#15AFA1"/>
<stop offset="1" stop-color="#13B2A3"/>
</linearGradient>
<linearGradient id="paint15_linear_67_53" x1="206.664" y1="187.014" x2="281.825" y2="255.361" gradientUnits="userSpaceOnUse">
<stop stop-color="#129085"/>
<stop offset="1" stop-color="#129084"/>
</linearGradient>
</defs>
</svg>
